<?xml version="1.0" encoding="UTF-8" standalone="no"?>
<!DOCTYPE svg PUBLIC "-//W3C//DTD SVG 1.1//EN" "http://www.w3.org/Graphics/SVG/1.1/DTD/svg11.dtd">
<svg xmlns="http://www.w3.org/2000/svg" xmlns:xlink="http://www.w3.org/1999/xlink" version="1.1" width="146.981pt" height="86.6808pt" viewBox="0 0 146.981 86.6808">
<g enable-background="new">
<g>
<clipPath id="cp0">
<path transform="matrix(1,0,0,-1,0,86.6808)" d="M 0 86.681 L 146.981 86.681 L 146.981 0 L 0 0 Z "/>
</clipPath>
<g clip-path="url(#cp0)">
<path transform="matrix(1,0,0,-1,41.4031,35.0517)" d="M 0 0 C 0 -4.52 -3.689 -6.979 -11.13 -6.979 C -17.925 -6.979 -22.137 -4.52 -22.137 1.63 L -12.606 1.63 C -12.606 -.154 -11.898 -.83 -11.069 -.83 C -10.331 -.83 -9.839 -.492 -9.839 .338 C -9.839 3.936 -21.83 .308 -21.83 8.793 C -21.83 13.283 -18.109 15.773 -11.007 15.773 C -4.181 15.773 -.308 13.221 -.308 7.317 L -9.531 7.317 C -9.531 9.163 -10.146 9.932 -11.038 9.932 C -11.837 9.932 -12.298 9.439 -12.298 8.548 C -12.298 5.166 0 7.932 0 0 " fill="#2e2b26"/>
<path transform="matrix(1,0,0,-1,64.7195,23.4057)" d="M 0 0 L 0 -17.972 L -9.803 -17.972 L -9.803 -12.025 C -10.194 -16.566 -12.417 -18.625 -16.436 -18.625 C -20.422 -18.625 -22.219 -16.207 -22.219 -12.482 L -22.219 0 L -12.417 0 L -12.417 -10.456 C -12.417 -11.437 -11.992 -12.09 -11.109 -12.09 C -10.227 -12.09 -9.803 -11.437 -9.803 -10.456 L -9.803 0 Z " fill="#2e2b26"/>
<path transform="matrix(1,0,0,-1,79.3059,31.476502)" d="M 0 0 C 0 1.83 -.686 2.679 -1.601 2.679 C -2.679 2.679 -3.268 1.241 -3.268 -1.405 L -3.268 -3.692 L -2.646 -3.692 C -1.045 -3.692 0 -2.026 0 0 M 9.476 .621 C 9.476 -5.784 5.13 -9.901 -1.307 -9.901 L -3.268 -9.901 L -3.268 -15.783 L -13.07 -15.783 L -13.07 8.071 L -3.268 8.071 L -3.268 .654 C -2.875 6.47 -.686 8.725 3.039 8.725 C 6.699 8.725 9.476 5.947 9.476 .621 " fill="#2e2b26"/>
<path transform="matrix(1,0,0,-1,109.5349,32.064905)" d="M 0 0 L -11.142 0 C -10.489 -2.385 -8.202 -3.757 -5.358 -3.757 C -2.483 -3.757 -.229 -2.287 0 0 M -11.339 1.634 L -8.365 1.634 C -8.463 4.02 -8.855 4.804 -9.771 4.804 C -10.718 4.804 -11.306 3.758 -11.339 1.634 M .164 0 C .164 -6.404 -3.692 -9.966 -9.868 -9.966 C -16.109 -9.966 -20.096 -6.208 -20.096 -.229 C -20.096 5.947 -15.815 9.313 -9.574 9.313 C -3.202 9.313 .164 6.045 .164 0 " fill="#2e2b26"/>
<path transform="matrix(1,0,0,-1,38.1541,54.733804)" d="M 0 0 L 12.825 0 L 12.825 -2.189 C 12.825 -8.758 8.446 -12.668 .688 -12.668 C -7.413 -12.668 -11.886 -8.477 -11.886 -1.095 C -11.886 6.287 -7.413 10.479 .688 10.479 C 8.446 10.479 12.825 6.569 12.825 1.251 L 2.816 1.251 C 2.753 2.033 2.221 2.972 .845 2.972 C -.562 2.972 -1.564 2.065 -1.564 -1.408 C -1.564 -4.879 -.562 -5.786 .845 -5.786 C 2.065 -5.786 2.627 -5.161 2.784 -3.91 L 0 -3.91 Z " fill="#2e2b26"/>
<path transform="matrix(1,0,0,-1,64.8098,57.762605)" d="M 0 0 C 0 2.124 -.869 2.68 -1.704 2.68 C -2.539 2.68 -3.407 2.124 -3.407 0 C -3.407 -2.124 -2.539 -2.68 -1.704 -2.68 C -.869 -2.68 0 -2.124 0 0 M 9.351 0 C 9.351 -5.358 5.811 -9.639 -1.37 -9.639 C -9.218 -9.639 -12.759 -5.392 -12.759 0 C -12.759 5.359 -9.218 9.64 -2.038 9.64 C 5.811 9.64 9.351 5.391 9.351 0 " fill="#2e2b26"/>
<path transform="matrix(1,0,0,-1,87.6765,57.762605)" d="M 0 0 C 0 2.124 -.869 2.68 -1.704 2.68 C -2.539 2.68 -3.407 2.124 -3.407 0 C -3.407 -2.124 -2.539 -2.68 -1.704 -2.68 C -.869 -2.68 0 -2.124 0 0 M 9.352 0 C 9.352 -5.358 5.812 -9.639 -1.37 -9.639 C -9.218 -9.639 -12.759 -5.392 -12.759 0 C -12.759 5.359 -9.218 9.64 -2.038 9.64 C 5.812 9.64 9.352 5.391 9.352 0 " fill="#2e2b26"/>
<path transform="matrix(1,0,0,-1,110.6795,57.2724)" d="M 0 0 L 0 2.287 L -.621 2.287 C -2.222 2.287 -3.267 .621 -3.267 -1.405 C -3.267 -3.235 -2.581 -4.084 -1.666 -4.084 C -.587 -4.084 0 -2.647 0 0 M 9.803 14.586 L 9.803 -9.476 L 0 -9.476 L 0 -2.059 C -.392 -7.875 -2.581 -10.129 -6.306 -10.129 C -9.966 -10.129 -12.743 -7.352 -12.743 -2.026 C -12.743 4.378 -8.397 8.496 -1.96 8.496 L 0 8.496 L 0 14.586 Z " fill="#2e2b26"/>
<path transform="matrix(1,0,0,-1,127.7024,22.922802)" d="M 0 0 L 0 -11.582 C -2.436 -8.134 -3.82 -8.097 -4.865 -8.097 C -6.303 -8.097 -7.218 -9.174 -7.218 -11.266 L -7.218 -18.455 L -17.021 -18.455 L -17.021 -.483 L -7.218 -.483 L -7.218 -8.914 C -6.826 -2.378 -4.508 .317 0 0 " fill="#2e2b26"/>
</g>
</g>
</g>
</svg>
